<?xml version="1.0" standalone="no"?>
<!DOCTYPE svg PUBLIC "-//W3C//DTD SVG 20010904//EN"
 "http://www.w3.org/TR/2001/REC-SVG-20010904/DTD/svg10.dtd">
<svg version="1.0" xmlns="http://www.w3.org/2000/svg"
 width="200" height="200" viewBox="0 0 800 800"
 preserveAspectRatio="xMidYMid meet">

<g transform="translate(0.000000,800.000000) scale(0.100000,-0.100000)"
fill="#000000" stroke="none">
<path d="M82 7883 c-52 -25 -77 -69 -77 -133 0 -101 38 -129 335 -255 467
-197 1009 -373 1634 -531 203 -51 372 -96 376 -101 4 -4 86 -119 184 -255 97
-135 189 -254 203 -264 43 -27 103 -30 152 -5 60 31 83 72 79 142 -4 56 -21
86 -157 268 l-26 34 28 -7 c79 -19 618 -110 867 -145 315 -44 667 -87 803 -97
l87 -7 0 -258 0 -258 -577 -3 -578 -3 -77 -26 c-120 -41 -204 -94 -294 -183
-124 -125 -195 -273 -210 -445 -12 -126 28 -300 91 -406 l32 -52 -141 -6
c-183 -7 -286 -37 -410 -121 -133 -88 -232 -219 -283 -371 -24 -72 -27 -95
-27 -220 0 -125 3 -148 27 -220 14 -44 42 -105 60 -136 l34 -57 -66 -16 c-236
-58 -424 -232 -507 -467 -36 -101 -44 -271 -19 -384 57 -257 282 -484 532
-536 l60 -12 -28 -45 c-15 -24 -42 -83 -60 -131 -26 -71 -32 -106 -36 -197 -7
-142 12 -235 75 -364 38 -80 60 -109 132 -181 148 -147 309 -209 543 -209
l115 0 -44 -87 c-60 -119 -78 -195 -78 -323 1 -278 147 -511 399 -636 159 -79
77 -75 1523 -72 l1287 3 64 23 c195 71 330 182 423 349 55 100 81 207 82 333
0 128 -18 204 -77 321 l-43 87 145 4 c120 4 160 10 223 30 208 68 371 220 451
421 77 192 58 441 -48 620 -34 56 -34 57 -11 57 36 0 144 38 221 78 100 52
226 181 283 288 215 411 -10 919 -455 1028 l-71 18 34 55 c18 31 46 92 61 137
26 74 28 93 28 221 -1 127 -3 148 -29 220 -77 222 -257 396 -480 463 -62 19
-113 26 -217 29 l-136 5 32 53 c104 174 120 417 39 616 -80 197 -241 346 -452
418 l-77 26 -577 3 -578 3 0 245 0 245 33 -5 c81 -13 657 -44 1054 -56 504
-16 928 -13 991 5 96 29 139 129 91 214 -44 79 -24 75 -488 81 l-413 5 106
133 c148 183 156 197 156 249 0 54 -20 94 -63 127 -43 33 -116 35 -164 7 -17
-11 -118 -128 -225 -261 l-193 -241 -185 5 c-102 2 -301 13 -442 22 l-258 18
0 71 c0 122 -58 195 -155 195 -92 0 -155 -73 -155 -181 l0 -57 -37 4 c-21 2
-105 11 -188 20 -737 76 -1584 225 -2298 405 -308 78 -330 84 -307 93 8 3 174
52 367 110 194 58 364 113 377 121 29 19 66 90 66 126 -1 42 -37 108 -72 129
-19 12 -51 20 -76 20 -26 0 -267 -67 -631 -175 l-588 -175 -144 49 c-264 89
-515 187 -726 285 -132 60 -174 68 -231 39z m6000 -2225 c250 -124 305 -450
107 -648 -58 -58 -121 -93 -199 -109 -41 -9 -371 -11 -1300 -9 l-1245 3 -59
28 c-119 55 -190 137 -228 260 -52 171 22 368 171 455 113 66 14 62 1412 59
l1265 -2 76 -37z m730 -1115 c210 -99 298 -332 204 -539 -35 -77 -116 -158
-195 -197 l-66 -32 -564 -3 -563 -3 -97 94 c-144 139 -281 223 -456 280 -133
43 -192 52 -350 52 -322 0 -569 -102 -806 -332 l-97 -94 -558 3 -559 3 -58 23
c-35 15 -81 45 -117 79 -200 185 -172 494 59 642 99 64 -40 60 2156 58 l2000
-2 67 -32z m-1862 -682 c142 -39 310 -143 404 -252 66 -77 135 -200 168 -299
26 -82 31 -114 36 -230 6 -169 -13 -257 -90 -410 -45 -91 -64 -117 -148 -201
-144 -145 -269 -210 -471 -245 -392 -68 -790 176 -919 564 -113 340 -1 712
280 927 109 83 207 128 350 160 90 20 290 13 390 -14z m-1305 -418 c-4 -10
-19 -61 -33 -113 -23 -86 -26 -112 -26 -280 1 -167 3 -194 26 -275 14 -49 29
-98 33 -108 7 -17 -26 -17 -711 -15 l-719 3 -70 33 c-122 58 -200 163 -226
304 -35 192 99 400 293 452 43 12 178 15 747 15 656 1 693 0 686 -16z m3647
-20 c335 -158 320 -624 -25 -752 -57 -21 -67 -21 -763 -21 -669 0 -706 1 -699
18 17 39 44 156 56 233 22 156 -4 411 -56 542 -7 17 25 18 706 15 l714 -3 67
-32z m-3384 -1171 c220 -223 505 -342 817 -342 312 0 593 118 816 342 l88 89
558 -3 558 -3 67 -32 c214 -101 299 -335 200 -547 -38 -81 -103 -145 -187
-187 l-70 -34 -2030 0 -2030 0 -65 31 c-290 137 -313 539 -42 713 92 59 104
60 695 60 l539 1 86 -88z m2154 -1069 c120 -57 203 -154 234 -273 53 -208 -71
-425 -277 -484 -49 -15 -186 -16 -1320 -14 l-1264 3 -55 26 c-85 40 -154 108
-197 197 -36 72 -38 81 -38 171 1 76 5 108 24 154 44 112 177 223 295 247 22
4 601 7 1286 7 l1245 -2 67 -32z"/>
<path d="M7624 5826 c-37 -16 -72 -62 -80 -105 -11 -53 4 -99 47 -142 36 -36
43 -39 95 -39 98 0 158 58 157 153 -2 109 -115 178 -219 133z"/>
<path d="M1196 5207 c-54 -30 -78 -78 -73 -143 4 -61 28 -97 83 -124 51 -25
77 -25 130 1 56 27 84 72 84 136 0 120 -120 190 -224 130z"/>
<path d="M1025 2756 c-77 -34 -111 -122 -77 -199 27 -61 72 -91 138 -92 57 0
90 18 128 69 29 38 29 124 0 162 -48 64 -126 89 -189 60z"/>
<path d="M7763 379 c-34 -21 -73 -90 -73 -127 0 -35 25 -84 59 -116 24 -23 42
-30 86 -34 47 -4 61 -1 94 21 93 61 93 192 1 255 -44 29 -122 30 -167 1z"/>
</g>
</svg>
